<svg width="29" height="24" viewBox="0 0 29 24" fill="none" xmlns="http://www.w3.org/2000/svg">
<path d="M2.74829 4.78818H22.3108L20.7883 8.9415H7.54321C5.65099 8.94154 4.2717 10.7005 4.68286 12.5157L4.72778 12.6915L5.32446 14.7452L3.67896 14.5196L3.67114 14.5187L3.51489 14.4933C2.79737 14.3437 2.22074 13.8074 2.0188 13.1026L1.98071 12.9493L0.809814 7.15732C0.562219 5.93265 1.49886 4.78818 2.74829 4.78818Z" stroke="#111111" stroke-width="1.5"/>
<path d="M3.72754 20.3959H4.55371L4.96875 21.1127C5.09012 21.3226 5.15918 21.5666 5.15918 21.8285C5.15894 22.619 4.51815 23.2601 3.72754 23.2601C2.93701 23.26 2.29614 22.6189 2.2959 21.8285C2.2959 21.0378 2.93684 20.396 3.72754 20.3959ZM18.71 20.3959L19.124 21.1127C19.2455 21.3227 19.3154 21.5665 19.3154 21.8285C19.3152 22.6189 18.6743 23.26 17.8838 23.2601C17.0932 23.2601 16.4524 22.619 16.4521 21.8285C16.4521 21.5666 16.5212 21.3226 16.6426 21.1127L17.0576 20.3959H18.71ZM7.54297 11.5326H19.8389L18.1973 16.0082L18.0205 16.4886L8.13379 15.1312L7.21582 11.9681C7.15284 11.7503 7.31613 11.5328 7.54297 11.5326Z" stroke="#111111" stroke-width="1.5"/>
</svg>
